HIERARCHY
ROOT hip
{
	OFFSET 0.000000 0.000000 0.000000 
	CHANNELS 6 Xposition Yposition Zposition Xrotation Zrotation Yrotation
	JOINT abdomen
	{
		OFFSET 0.000000 3.402643 0.000000 
		CHANNELS 3 Xrotation Zrotation Yrotation
		JOINT chest
		{
			OFFSET 0.000000 8.438565 -0.680529 
			CHANNELS 3 Xrotation Zrotation Yrotation
			JOINT neck
			{
				OFFSET 0.000000 10.207942 -0.272212 
				CHANNELS 3 Xrotation Zrotation Yrotation
				JOINT head
				{
					OFFSET 0.000000 3.130431 0.000000 
					CHANNELS 3 Xrotation Zrotation Yrotation
					End Site
					{
						OFFSET 0.000000 3.130435 0.000000 
					}
				}
			}
			JOINT lCollar
			{
				OFFSET 3.470700 6.669187 -0.816635 
				CHANNELS 3 Yrotation Zrotation Xrotation
				JOINT lShldr
				{
					OFFSET 3.198488 0.000000 0.000000 
					CHANNELS 3 Zrotation Yrotation Xrotation
					JOINT lForeArm
					{
						OFFSET 10.139888 0.000000 0.000000 
						CHANNELS 3 Yrotation Zrotation Xrotation
						JOINT lHand
						{
							OFFSET 8.370511 0.000000 0.000000 
							CHANNELS 3 Zrotation Yrotation Xrotation
							End Site
							{
								OFFSET 4.083176 0.000000 0.000000 
							}
						}
					}
				}
			}
			JOINT rCollar
			{
				OFFSET -3.470700 6.669187 -0.816635 
				CHANNELS 3 Yrotation Zrotation Xrotation
				JOINT rShldr
				{
					OFFSET -3.198488 0.000000 0.000000 
					CHANNELS 3 Zrotation Yrotation Xrotation
					JOINT rForeArm
					{
						OFFSET -10.139888 0.000000 0.000000 
						CHANNELS 3 Yrotation Zrotation Xrotation
						JOINT rHand
						{
							OFFSET -8.370511 0.000000 0.000000 
							CHANNELS 3 Zrotation Yrotation Xrotation
							End Site
							{
								OFFSET -4.083176 0.000000 0.000000 
							}
						}
					}
				}
			}
		}
	}
	JOINT lThigh
	{
		OFFSET 5.308129 -1.633274 1.361059 
		CHANNELS 3 Xrotation Zrotation Yrotation
		JOINT lShin
		{
			OFFSET -2.041588 -20.007561 0.000000 
			CHANNELS 3 Xrotation Zrotation Yrotation
			JOINT lFoot
			{
				OFFSET 0.000000 -19.190928 -1.224953 
				CHANNELS 3 Xrotation Yrotation Zrotation
				End Site
				{
					OFFSET 0.000000 -2.449906 4.627600 
				}
			}
		}
	}
	JOINT rThigh
	{
		OFFSET -5.308129 -1.633274 1.361059 
		CHANNELS 3 Xrotation Zrotation Yrotation
		JOINT rShin
		{
			OFFSET 2.041588 -20.007561 0.000000 
			CHANNELS 3 Xrotation Zrotation Yrotation
			JOINT rFoot
			{
				OFFSET 0.000000 -19.190928 -1.224953 
				CHANNELS 3 Xrotation Yrotation Zrotation
				End Site
				{
					OFFSET 0.000000 -2.449906 4.627600 
				}
			}
		}
	}
}
MOTION
Frames: 16
Frame Time: 0.033333
-46.394142 43.670902 -54.382336 3.990047 -14.244147 85.099716 0.000000 0.000000 0.000000 27.094574 5.228825 6.156243 -8.603516 0.000000 0.000000 -24.844400 -5.221202 15.412704 -2.957607 -0.090307 -0.002318 -52.104851 -69.858849 -15.568124 -43.563923 -34.375134 8.720352 64.863060 -37.468491 -18.726799 2.957607 0.090307 -0.002334 44.995392 59.588757 -17.565481 44.440975 20.694139 15.364845 -79.110497 49.229275 7.497377 -54.251492 2.704714 -1.146013 36.921707 -2.062524 -1.171697 5.056127 -9.388169 -6.965806 12.239837 -23.239864 -46.491131 25.009914 4.327767 5.600994 -31.222057 -14.702035 17.455151 
-46.126633 43.502983 -54.473320 4.078510 -14.671395 85.468399 0.000000 0.000000 0.000000 28.742668 3.571905 6.322681 -8.603516 0.000000 0.000000 -26.726116 -4.490123 14.484175 -2.957607 -0.090307 -0.002318 -50.779449 -78.046761 -19.737131 -32.180626 -27.906826 11.604448 64.120018 -37.235249 -19.666525 2.957607 0.090307 -0.002334 36.326885 68.339760 -27.210131 32.415379 15.859254 18.018932 -71.132301 48.228924 8.422019 -54.694729 2.489800 -0.480982 37.529064 -1.964925 -1.527490 4.587625 -9.759089 -6.595066 12.066963 -23.543947 -47.075714 26.368284 3.907895 6.142254 -31.469906 -14.540273 17.436296 
-45.970161 43.392059 -54.558746 4.089093 -15.226623 85.866997 0.000000 0.000000 0.000000 30.175247 2.381193 6.354568 -8.603516 0.000000 0.000000 -28.201252 -4.022737 13.843975 -2.957607 -0.090307 -0.002318 -37.786217 -85.287384 -33.574051 -22.846306 -21.576952 11.793015 64.214729 -36.019913 -20.652325 2.957607 0.090307 -0.002334 17.551634 76.033508 -47.220329 20.830406 10.955014 19.078852 -64.370598 46.382408 8.477889 -55.369930 2.343338 0.036239 38.260891 -1.828448 -1.712102 4.098272 -10.226850 -6.312527 11.532384 -23.955032 -47.526169 27.869886 3.624641 6.539379 -31.506433 -14.045874 17.681086 
-45.822300 43.323738 -54.638405 4.059730 -15.792340 86.080170 0.000000 0.000000 0.000000 31.512815 1.290522 6.377070 -8.603516 0.000000 0.000000 -29.523708 -3.628909 13.351645 -2.957607 -0.090307 -0.002318 -95.899033 -92.023857 24.622105 -16.333910 -16.780733 10.511258 65.192123 -33.603661 -20.417952 2.957607 0.090307 -0.002334 -21.657814 79.650894 -87.510170 10.364983 6.631237 18.579199 -58.482224 43.641651 7.663396 -56.073395 2.236004 0.405959 38.838554 -1.769550 -1.756574 3.806853 -10.572060 -5.989925 10.594748 -24.501646 -47.498455 29.554880 3.410182 6.901416 -31.730768 -13.087538 18.360249 
-45.765308 43.264030 -54.681122 3.978133 -16.281128 86.322731 0.000000 0.000000 0.000000 32.686417 0.394521 6.327422 -8.603516 0.000000 0.000000 -30.934624 -3.233244 13.026498 -2.957607 -0.090307 -0.002318 -64.417519 -96.608711 -6.768964 -11.498115 -13.379705 8.699164 66.438263 -31.186497 -20.655508 2.957607 0.090307 -0.002334 -56.651718 77.440636 -122.867455 2.441615 4.132498 17.414059 -54.813915 41.043732 5.239198 -56.655693 2.138073 0.555532 39.160954 -1.769596 -1.775766 3.700191 -10.823896 -5.728546 9.397027 -25.192036 -47.171890 31.266834 3.351415 7.085251 -31.982399 -11.826870 19.104761 
-45.691322 43.272530 -54.700947 4.008796 -16.777576 86.447113 0.000000 0.000000 0.000000 33.702694 -0.511837 6.416360 -8.603516 0.000000 0.000000 -32.399628 -2.942526 12.721016 -2.957607 -0.090307 -0.002318 -63.970726 -99.040314 -6.619503 -10.028924 -12.093163 7.602579 66.944244 -30.968870 -20.451626 2.957607 0.090307 -0.002334 112.652718 105.561043 46.206665 -0.375073 3.780535 16.569380 -55.237511 39.818642 2.018136 -57.193333 2.089477 0.737456 39.376598 -1.769717 -1.769222 3.599380 -11.042288 -5.577992 8.224329 -25.748011 -47.336559 32.620075 3.468764 7.232904 -32.115940 -10.371031 20.047050 
-45.637280 43.278194 -54.703773 4.059942 -17.254103 86.625214 0.000000 0.000000 0.000000 34.327740 -1.379188 6.548416 -8.603516 0.000000 0.000000 -33.536388 -2.753425 12.410687 -2.957607 -0.090307 -0.002318 -64.862244 -100.463394 -4.007326 -9.635185 -11.779655 7.619430 65.083069 -32.503819 -18.395092 2.957607 0.090307 -0.002334 108.040154 107.965332 41.236767 -1.261426 3.739428 16.118938 -57.356979 39.275108 0.269228 -57.697491 2.079545 0.680855 39.211193 -1.808840 -1.714235 3.776475 -11.175957 -5.635016 7.109220 -25.879562 -48.322239 33.241638 3.562001 7.254784 -31.654659 -7.917331 20.735989 
-45.660053 43.329403 -54.683838 4.035728 -17.546957 86.894501 0.000000 0.000000 0.000000 34.434017 -1.304930 6.263498 -8.603516 0.000000 0.000000 -33.812111 -2.791988 12.665159 -2.957607 -0.090307 -0.002318 -66.715599 -100.547600 -0.170286 -8.929277 -11.241847 7.932683 63.916397 -32.011005 -17.050274 2.957607 0.090307 -0.002334 105.454926 108.747375 38.765209 -1.720775 3.829894 16.216740 -58.820389 37.137901 -0.743067 -58.014343 2.079763 0.502625 38.860760 -1.867393 -1.615590 4.089651 -11.365790 -5.694830 6.036459 -25.971275 -48.974506 33.614853 3.839495 7.176093 -31.172226 -6.069326 20.944672 
-45.788086 43.420502 -54.621288 3.913480 -17.578642 87.155472 0.000000 0.000000 0.000000 34.578716 -1.182033 5.913818 -8.603516 0.000000 0.000000 -34.023823 -2.710566 12.863453 -2.957607 -0.090307 -0.002318 -69.479752 -100.453979 4.443461 -8.459774 -10.744802 7.509966 62.844913 -31.088934 -15.915091 2.957607 0.090307 -0.002334 103.486023 108.941154 37.030193 -1.844551 3.985708 16.113838 -59.834198 35.000565 -1.329677 -58.104790 2.099011 0.195484 38.442524 -1.890485 -1.520216 4.453001 -11.515975 -5.826826 5.214625 -25.859795 -49.622837 33.744579 4.147487 7.175293 -30.715614 -4.486707 20.760414 
-45.992935 43.557030 -54.521698 3.867537 -17.345604 87.074966 0.000000 0.000000 0.000000 34.676044 -1.156550 5.567142 -8.603516 0.000000 0.000000 -34.138374 -2.403842 13.205708 -2.957607 -0.090307 -0.002318 -73.640892 -100.254105 8.480937 -8.276940 -10.654887 7.553109 61.586197 -30.742085 -14.194592 2.957607 0.090307 -0.002334 102.726677 108.197617 37.210258 -0.945359 4.412117 15.910258 -59.867702 33.937611 -1.152186 -57.871811 2.284377 -0.241113 37.798740 -1.988239 -1.367142 4.970551 -11.392331 -6.093417 4.607559 -25.721638 -50.017590 33.547237 4.396107 7.326375 -30.176565 -3.248116 20.117754 
-46.234726 43.668068 -54.407944 3.808574 -16.966564 86.933975 0.000000 0.000000 0.000000 34.606083 -1.036937 5.212254 -8.603516 0.000000 0.000000 -34.040260 -2.127113 13.666494 -2.957607 -0.090307 -0.002318 -79.285034 -99.827705 13.848637 -8.607213 -10.843989 7.800656 60.712711 -30.471493 -12.905511 2.957607 0.090307 -0.002334 102.702141 107.069633 38.365379 0.336172 4.968875 15.959919 -59.648308 33.887318 -0.857000 -57.479778 2.548377 -0.714674 37.085278 -2.072244 -1.243205 5.498179 -11.212574 -6.451261 4.243725 -25.456528 -50.356625 33.052837 4.688888 7.579453 -29.787125 -3.142809 19.020128 
-46.462349 43.830208 -54.288406 3.809408 -16.498659 86.668053 0.000000 0.000000 0.000000 34.437397 -0.797385 4.834065 -8.603516 0.000000 0.000000 -33.770008 -1.934102 14.302594 -2.957607 -0.090307 -0.002318 -86.914757 -99.215530 21.043690 -9.113003 -11.251146 8.235613 59.976219 -30.130789 -11.847723 2.957607 0.090307 -0.002334 103.385979 105.501129 40.260841 2.104156 5.691623 15.919530 -59.753479 34.192585 -0.682499 -56.964462 2.851153 -1.154899 36.255974 -2.111253 -1.106882 6.090856 -10.996395 -6.864704 4.091569 -25.039478 -50.560379 32.372723 4.957899 7.730216 -29.347864 -3.366155 17.899595 
-46.732689 43.958237 -54.157547 3.704045 -15.769418 86.236282 0.000000 0.000000 0.000000 34.122677 -0.517405 4.512608 -8.603516 0.000000 0.000000 -33.244732 -1.680809 15.030120 -2.957607 -0.090307 -0.002318 -99.595871 -98.260254 33.210251 -10.119539 -12.078413 8.647070 59.571709 -29.723166 -11.306636 2.957607 0.090307 -0.002334 106.068413 103.297409 43.886532 4.452179 6.603293 15.714638 -60.090275 34.488258 -0.563220 -56.102638 3.339071 -1.734042 35.128979 -2.212797 -0.989842 6.913712 -10.648779 -7.342327 4.206940 -24.452539 -50.343124 31.544273 5.147982 7.757718 -28.985188 -3.619061 16.776733 
-47.028641 44.117538 -54.015236 3.608172 -14.922860 85.787117 0.000000 0.000000 0.000000 33.691483 -0.113755 4.152656 -8.603516 0.000000 0.000000 -32.594139 -1.447805 15.876230 -2.957607 -0.090307 -0.002318 -119.086960 -97.528633 52.021404 -11.560313 -13.156383 8.995279 59.426041 -29.284077 -11.225485 2.957607 0.090307 -0.002334 111.514481 100.766296 50.235676 7.107953 7.595742 15.424126 -60.590244 34.927361 -0.496144 -55.131138 3.817668 -2.068397 34.310497 -2.271296 -0.780719 7.455625 -10.526328 -7.688318 4.511592 -24.042898 -49.550575 30.759790 5.265049 7.873302 -29.226858 -4.757014 16.055035 
-47.287537 44.265514 -53.881542 3.462030 -13.979353 85.226013 0.000000 0.000000 0.000000 33.330688 0.326374 3.984219 -8.603516 0.000000 0.000000 -32.005226 -1.319826 16.687897 -2.957607 -0.090307 -0.002318 37.388210 -82.329758 -105.271141 -13.675774 -14.660654 9.179973 59.388802 -28.767248 -10.942789 2.957607 0.090307 -0.002334 -56.803234 81.630898 -117.221550 10.108173 8.688580 15.065632 -61.200619 35.396587 -0.398104 -53.988750 4.413526 -2.403421 33.482693 -2.315922 -0.566339 7.962061 -10.320059 -8.094614 4.933832 -23.540371 -48.470249 29.865978 5.392289 7.874800 -29.416939 -5.686644 15.401334 
-47.517994 44.353775 -53.787609 3.337669 -13.005999 84.716301 0.000000 0.000000 0.000000 32.737045 0.690029 3.783530 -8.603516 0.000000 0.000000 -31.278746 -1.124169 17.452707 -2.957607 -0.090307 -0.002318 13.980759 -81.044716 -82.823303 -16.280561 -16.491081 9.305823 59.536934 -28.342821 -10.691694 2.957607 0.090307 -0.002334 -33.559666 83.420151 -93.203445 13.382030 9.859497 14.682212 -61.908295 35.946178 -0.358816 -52.782700 5.028653 -2.657562 32.605782 -2.374655 -0.323025 8.480605 -10.214366 -8.459451 5.407027 -23.162476 -47.230476 29.048401 5.548900 7.751742 -29.527184 -6.513697 14.885144 
